<?xml version="1.0" encoding="utf-8"?>
<!-- Generator: Adobe Illustrator 16.0.0, SVG Export Plug-In . SVG Version: 6.00 Build 0)  -->
<!DOCTYPE svg PUBLIC "-//W3C//DTD SVG 1.1//EN" "http://www.w3.org/Graphics/SVG/1.1/DTD/svg11.dtd">
<svg version="1.1" id="e6d15d18-a685-4480-ac2b-bd578043a679"
	 xmlns="http://www.w3.org/2000/svg" xmlns:xlink="http://www.w3.org/1999/xlink" x="0px" y="0px" width="1041.32px"
	 height="554.17px" viewBox="0 0 1041.32 554.17" enable-background="new 0 0 1041.32 554.17" xml:space="preserve">
<title>programmer</title>
<path fill="#F2F2F2" d="M961.48,438.21c-1.16,2.5-2.316,4.967-3.47,7.4c-1.801,3.779-3.577,7.486-5.33,11.12
	c-0.78,1.609-1.561,3.189-2.32,4.77c-8.6,17.57-16.63,33.11-23.45,45.89c-12.604,23.587-37.067,38.424-63.81,38.7l-151.65,1.65h-1.6
	l-13,0.14L685.73,548l-34.1,0.37h-1.38l-17.36,0.189h-0.53l-107,1.16l-95.51,1l-11.11,0.12l-69,0.75h-0.08l-44.75,0.48h-0.479
	l-141.5,1.529l-42.33,0.46c-3.604,0.042-7.208-0.139-10.79-0.54l0,0c-1.221-0.14-2.44-0.3-3.65-0.489
	c-19.742-3.048-37.844-12.768-51.29-27.54c-18.21-20.03-31.46-43.4-40.36-68.76c-1.286-3.66-2.486-7.367-3.6-11.12
	C-19.9,341.46,17.66,207.09,85.26,117.17c2.833-3.76,5.713-7.427,8.64-11l0.07-0.08c20.79-25.52,44.1-46.84,68.93-62
	c44-26.91,92.75-34.49,140.7-11.9c40.57,19.12,78.45,28.11,115.17,30.55c3.71,0.24,7.42,0.42,11.11,0.53
	c84.229,2.65,163.17-27.7,255.87-47.29c3.689-0.78,7.39-1.55,11.119-2.28C763.001,0.54,836.36-6.4,923.6,8.19
	c9.063,1.481,18.007,3.62,26.76,6.4c3.847,1.24,7.554,2.573,11.12,4c41.64,16.94,64.35,48.24,74,87.46
	c0.913,3.64,1.703,7.344,2.37,11.11C1054.961,211.5,1004.85,345.319,961.48,438.21z"/>
<path opacity="0.1" enable-background="new    " d="M497.02,445.61c-0.403,3.74-1.027,7.453-1.87,11.12h93.7v-11.12H497.02z
	 M418.77,508.42l11.11-0.09v-27.47c-3.811-0.17-7.521-0.341-11.11-0.521V508.42z M185.85,445.61v11.12h198.5v-11.12H185.85z
	 M1035.53,106.09h-74V18.6c-3.566-1.447-7.273-2.78-11.12-4v91.49H696.87V13.67c-3.729,0.73-7.43,1.5-11.119,2.28v90.14h-255.87
	V63.24c-3.69-0.11-7.4-0.29-11.11-0.53v43.38H162.9v-62c-24.83,15.16-48.14,36.48-68.93,62H93.9v0.08
	c-2.934,3.6-5.813,7.267-8.641,11H93.9v328.44h-83c1.106,3.753,2.307,7.46,3.6,11.12H93.89v93.619
	c3.994,1.222,8.071,2.154,12.199,2.79c1.21,0.19,2.431,0.351,3.65,0.49l0,0c3.582,0.401,7.186,0.581,10.79,0.54l42.33-0.46v-97
	h255.91v94.21l11.11-0.12V456.73h255.87v91.359l11.119-0.12V456.73h253.49v4.77c0.76-1.58,1.54-3.16,2.32-4.77
	c1.753-3.634,3.529-7.341,5.33-11.12c1.153-2.427,2.31-4.894,3.47-7.4v-321h76.42C1037.227,113.417,1036.437,109.71,1035.53,106.09z
	 M162.9,445.61V117.17h255.87v328.44H162.9z M685.751,445.61H429.9 M950.381,445.61H696.87"/>
<polygon fill="#65617D" points="863.091,533.65 863.091,546.65 711.171,548.05 709.551,548.08 651.81,548.61 650.43,548.63 
	632.881,548.78 632.36,548.78 525.381,549.77 349.77,551.4 349.62,551.4 304.97,551.82 304.49,551.83 106.09,553.65 106.09,538.65 
	152.74,510.65 246.34,509.87 248.34,509.86 249,509.85 251,509.82 295.94,509.45 297.95,509.44 298.59,509.43 300.59,509.42 
	315.001,509.3 315.381,509.29 350.93,508.99 351.22,508.99 628.62,506.65 635.41,506.6 636.091,506.6 641.27,506.55 678.921,506.24 
	680.921,506.21 682.77,506.19 683.73,506.19 695.44,506.1 697.76,506.07 700.87,506.05 710.62,505.96 726.091,505.83 
	728.091,505.81 731.57,505.79 732.22,505.79 806.93,505.15 "/>
<polygon opacity="0.2" enable-background="new    " points="863.091,533.65 863.091,546.65 711.171,548.05 709.551,548.08 
	651.81,548.61 650.43,548.63 632.881,548.78 632.36,548.78 525.381,549.77 349.77,551.4 349.62,551.4 304.97,551.82 304.49,551.83 
	106.09,553.65 106.09,538.65 152.74,510.65 246.34,509.87 248.34,509.86 249,509.85 251,509.82 295.94,509.45 297.95,509.44 
	298.59,509.43 300.59,509.42 315.001,509.3 315.381,509.29 350.93,508.99 351.22,508.99 628.62,506.65 635.41,506.6 636.091,506.6 
	641.27,506.55 678.921,506.24 680.921,506.21 682.77,506.19 683.73,506.19 695.44,506.1 697.76,506.07 700.87,506.05 710.62,505.96 
	726.091,505.83 728.091,505.81 731.57,505.79 732.22,505.79 806.93,505.15 "/>
<path fill="#3F3D56" d="M296.1,483.66v24.49c0.001,2.367-1.361,4.523-3.5,5.539c-0.78,0.379-1.634,0.583-2.5,0.601l-34.9,0.74
	c-0.932,0.022-1.856-0.173-2.7-0.57c-2.177-0.998-3.572-3.175-3.569-5.57V483.66H296.1z"/>
<path opacity="0.1" enable-background="new    " d="M296.1,483.66v24.49c0.001,2.367-1.361,4.523-3.5,5.539
	c-0.78,0.379-1.634,0.583-2.5,0.601l-34.9,0.74c-0.932,0.022-1.856-0.173-2.7-0.57c-2.177-0.998-3.572-3.175-3.569-5.57V483.66
	H296.1z"/>
<path fill="#3F3D56" d="M298.1,483.66v24.49c0.001,2.367-1.361,4.523-3.5,5.539c-0.78,0.379-1.634,0.583-2.5,0.601l-34.9,0.74
	c-0.932,0.022-1.856-0.173-2.7-0.57c-2.177-0.998-3.572-3.175-3.569-5.57V483.66H298.1z"/>
<rect x="680.921" y="483.65" fill="#3F3D56" width="47.17" height="31.5"/>
<rect x="680.921" y="483.65" opacity="0.1" enable-background="new    " width="47.17" height="31.5"/>
<rect x="678.921" y="483.65" fill="#3F3D56" width="47.17" height="31.5"/>
<polygon opacity="0.1" enable-background="new    " points="298.09,483.65 298.09,488.62 250.92,489.88 250.92,483.65 "/>
<path fill="#65617D" d="M381.35,312.36V480.56c-0.025,2.133-1.719,3.87-3.85,3.95l-191.65,5.101H185.8
	c-2.17-0.027-3.923-1.78-3.949-3.95v-173.3c0.026-2.171,1.779-3.924,3.949-3.95H377.4C379.57,308.437,381.323,310.189,381.35,312.36
	z"/>
<path opacity="0.1" enable-background="new    " d="M185.85,308.41v181.2H185.8c-2.17-0.027-3.923-1.78-3.949-3.95v-173.3
	c0.026-2.171,1.779-3.924,3.949-3.95H185.85z"/>
<polygon fill="#49495E" points="194.59,319.149 372.091,319.149 372.091,467.4 194.59,471.4 "/>
<polygon opacity="0.1" enable-background="new    " points="726.091,483.65 726.091,490.06 678.921,488.8 678.921,483.65 "/>
<path fill="#65617D" d="M788.35,312.36v173.3c-0.027,2.189-1.811,3.95-4,3.95l0,0l-191.69-5.101c-2.131-0.08-3.824-1.817-3.85-3.95
	V312.36c0.027-2.171,1.779-3.924,3.95-3.95h191.6C786.546,308.415,788.323,310.175,788.35,312.36z"/>
<path opacity="0.1" enable-background="new    " d="M788.35,312.36v173.3c-0.027,2.189-1.811,3.95-4,3.95l0,0v-181.2l0,0
	C786.54,308.409,788.323,310.171,788.35,312.36z"/>
<polygon fill="#49495E" points="775.591,319.149 598.091,319.149 598.091,467.4 775.591,471.4 "/>
<path fill="#65617D" d="M583.85,312.36V480.56c-0.025,2.133-1.719,3.87-3.85,3.95l-191.65,5.101l0,0c-2.189,0-3.973-1.761-4-3.95
	v-173.3c0.027-2.171,1.779-3.924,3.95-3.95h191.6C582.071,308.437,583.823,310.189,583.85,312.36z"/>
<polygon fill="#49495E" points="397.091,319.149 574.591,319.149 574.591,467.4 397.091,471.4 "/>
<polygon opacity="0.1" enable-background="new    " points="863.091,533.65 863.091,546.65 711.171,548.05 709.551,548.08 
	651.81,548.61 650.43,548.63 632.881,548.78 632.36,548.78 525.381,549.77 349.77,551.4 349.62,551.4 304.97,551.82 304.49,551.83 
	106.09,553.65 106.09,538.65 308.6,537.32 309.08,537.32 350.07,537.04 350.26,537.04 633.341,535.17 633.631,535.17 
	633.801,535.16 634.27,535.16 639.06,535.13 640.52,535.13 715.01,534.63 719.41,534.61 720.39,534.6 "/>
<circle fill="#FBBEBE" cx="487.26" cy="298.15" r="51.33"/>
<path fill="#FBBEBE" d="M538.6,377.16c0,0-99.5,12-90,0c3.439-4.341,4.39-17.2,4.2-31.851c-0.061-4.449-0.221-9.06-0.45-13.649
	c-1.1-22-3.75-43.5-3.75-43.5s87-41,77-8.5c-4,13.13-2.69,31.569,0.35,48.88c0.891,5.05,1.92,10,3,14.7
	C531.586,354.704,534.807,366.025,538.6,377.16z"/>
<path fill="#FF6584" d="M506.131,373.09c11.51-2.13,23.699-6,34.529-1.54c2.851,1.17,5.471,2.881,8.391,3.86s6.12,1.22,9.159,1.909
	c10.681,2.42,19.341,10.551,24.9,20.001c5.561,9.449,8.44,20.14,11.26,30.72l6.9,25.83c6,22.45,12,45.09,13.39,68.3
	c-83.533,4.781-167.257,5.259-250.84,1.43c5.44-10.34,11-21.31,10.54-33c-0.46-11.689-7.189-23.22-4.76-34.739
	c1.55-7.341,6.57-13.391,9.64-20.221c8.75-19.52,1.94-45.789,17.32-60.65c6.92-6.68,17-9.209,26.63-8.889
	c12.28,0.409,24.851,4.239,37,6.109C475.751,374.569,490.45,375.97,506.131,373.09z"/>
<path opacity="0.1" enable-background="new    " d="M637.03,484.26l-0.1,1.43v0.101l-0.17,2.3l-1.33,18.51l-1.61,22.301l-0.46,6.279
	l-1,13.44v0.17l-107,1l-175.59,1.899v0.841h-0.14v-0.841v-0.279l0.449-14.36l0.86-28.06l0.74-23.79l0.069-2.37
	c0.179-5.813,5.034-10.381,10.848-10.203c0.191,0.006,0.382,0.017,0.573,0.033c4.72,0.399,10.85,0.89,18.18,1.41l3,0.22
	c42.33,2.939,120.56,6.74,199.5,2c1.66-0.09,3.33-0.19,5-0.311c12.24-0.77,24.47-1.76,36.58-3
	c5.783-0.605,10.964,3.592,11.569,9.376c0.065,0.616,0.075,1.236,0.03,1.854V484.26z"/>
<path fill="#3F3D56" d="M349.74,552.53v-0.841l175.62-1.909l107-1h0.3v-0.17l1-13.44l0.431-6l1.64-22.61l1.29-17.899v-0.44
	c0.06-0.824,0.022-1.653-0.11-2.47c0.006-0.033,0.006-0.066,0-0.1c-0.274-1.688-0.961-3.282-2-4.641c-2.238-2.87-5.8-4.383-9.42-4
	c-12.109,1.24-24.34,2.23-36.58,3c-1.67,0.12-3.34,0.221-5,0.311c-78.939,4.689-157.17,0.89-199.5-2l-3-0.221
	c-7.33-0.52-13.46-1-18.18-1.409c-5.378-0.454-10.229,3.228-11.24,8.529c-0.101,0.542-0.161,1.09-0.18,1.641l-0.68,22.16
	L350.2,537.09l-0.439,14.36v0.28v0.84L349.74,552.53z"/>
<path opacity="0.1" enable-background="new    " d="M637.33,491.27L636.1,506.6l-1.83,22.851l-0.46,5.72l-1,12.81l-0.06,0.641v0.17
	l0,0l-0.15,1.479l0.109-1.479h-0.289l-107,1l-175.65,1.899v-0.279l0.49-14.36l1-28.06l0.64-18.65
	c0.064-2.155,1.216-4.132,3.061-5.25c1.132-0.694,2.456-1.009,3.779-0.9c2.101,0.171,4.681,0.37,7.69,0.591
	c4.89,0.359,10.92,0.779,17.939,1.22c13,0.82,29.311,1.7,48,2.42c52,2,122.2,2.67,188.881-3.17c3-0.26,6.1-0.55,9.13-0.84
	c1.199-0.12,2.407,0.109,3.479,0.66c0.304,0.15,0.592,0.332,0.86,0.539c0.87,0.631,1.56,1.479,2,2.461
	c0.102,0.194,0.186,0.398,0.25,0.609C637.27,489.509,637.393,490.391,637.33,491.27z"/>
<path opacity="0.1" enable-background="new    " d="M298.1,504.96v3.19c0.001,2.367-1.361,4.523-3.5,5.539L254.5,514.46
	c-2.177-0.998-3.572-3.175-3.569-5.57v-3L298.1,504.96z"/>
<polygon fill="#3F3D56" points="298.59,515.57 246.34,516.57 246.34,507.9 298.59,506.9 "/>
<polygon opacity="0.1" enable-background="new    " points="298.59,515.57 246.34,516.57 246.34,507.9 298.59,506.9 "/>
<polygon fill="#3F3D56" points="300.59,515.57 248.34,516.57 248.34,507.9 300.59,506.9 "/>
<path opacity="0.1" enable-background="new    " d="M679.22,506.96v3.19c-0.001,2.367,1.361,4.523,3.5,5.539l40.1,0.771
	c2.178-0.998,3.573-3.175,3.57-5.57v-3L679.22,506.96z"/>
<polygon opacity="0.1" enable-background="new    " points="678.72,517.57 730.97,518.57 730.97,509.9 678.72,508.9 "/>
<polygon fill="#3F3D56" points="676.72,517.57 728.97,518.57 728.97,509.9 676.72,508.9 "/>
<path display="none" fill="#3F3D56" d="M454.79,313.88c0.08,7-3.159,13.6-5.909,20.07c-10.013,23.568-14.35,49.158-12.66,74.71
	c0.729,11,2.58,22,0.729,32.899c-1.85,10.9-8.43,21.771-19,24.9c17.53,10.45,41.261,9.35,57.761-2.66
	c8.79-6.399,15.34-15.33,21.75-24.109c-0.762,15.771-5.328,31.125-13.311,44.75c29.179-2.584,55.893-17.418,73.51-40.82
	c4.311-5.811,8.061-12.19,9.721-19.23c3.09-13-1.221-26.51-4.511-39.5c-2.749-10.859-4.81-21.881-6.17-33
	c-0.43-3.56-0.779-7.22,0.101-10.699c1-4.07,3.67-7.51,5.64-11.221c5.6-10.539,5.73-23.3,2.86-34.88s-8.49-22.26-14.061-32.81
	c-4.46-8.46-9.3-17.311-17.46-22.28c-5.1-3.1-11-4.39-16.88-5.64l-25.37-5.43c-5.55-1.19-11.26-2.38-16.87-1.51
	c-9.47,1.48-16.14,8.32-22,15.34c-4.59,5.46-15.81,15.71-16.6,22.86c-0.72,6.59,5.1,17.63,6.09,24.58c1.3,9,2.22,6,7.3,11.52
	C452.66,305.14,454.73,309.09,454.79,313.88z"/>
<path fill="#F2F2F2" d="M348.916,338.294h-99.601c-0.276,0-0.5-0.224-0.5-0.5s0.224-0.5,0.5-0.5h99.601c0.275,0,0.5,0.224,0.5,0.5
	S349.192,338.294,348.916,338.294z"/>
<path fill="#F2F2F2" d="M348.916,347.294h-99.601c-0.276,0-0.5-0.224-0.5-0.5s0.224-0.5,0.5-0.5h99.601c0.275,0,0.5,0.224,0.5,0.5
	S349.192,347.294,348.916,347.294z"/>
<path fill="#F2F2F2" d="M348.916,356.294h-99.601c-0.276,0-0.5-0.224-0.5-0.5s0.224-0.5,0.5-0.5h99.601c0.275,0,0.5,0.224,0.5,0.5
	S349.192,356.294,348.916,356.294z"/>
<g>
	<path fill-rule="evenodd" clip-rule="evenodd" fill="#FEFEFE" d="M887.628,255.206c-0.001,0.928,0.713,2.174-0.669,2.83"/>
	<path fill-rule="evenodd" clip-rule="evenodd" fill="#FEFEFE" d="M886.959,120.061c0.235,0.118,0.664,0.221,0.675,0.356
		c0.063,0.82,0.031,1.648,0.031,2.474"/>
	<path fill-rule="evenodd" clip-rule="evenodd" fill="#002A5B" d="M829.39,190.801c-4.123,0-8.004,0.003-11.883-0.005
		c-0.461,0-0.92-0.071-1.67-0.134c-0.068-1.042-0.19-2.054-0.192-3.065c-0.021-9.663-0.065-19.326,0.011-28.988
		c0.016-1.979-0.504-3.69-1.464-5.33c-0.291-0.499-0.65-0.99-1.075-1.375c-3.443-3.115-11.168-1.739-13.097,2.487
		c-0.799,1.746-1.291,3.788-1.32,5.705c-0.139,8.954-0.067,17.91-0.07,26.866c-0.001,1.151,0,2.303,0,3.645
		c-4.718,0-9.139,0-13.895,0c-0.064-0.945-0.19-1.953-0.191-2.961c-0.018-9.662-0.058-19.325,0.02-28.987
		c0.016-1.972-0.331-3.796-1.472-5.305c-0.808-1.066-1.946-2.297-3.145-2.58c-6.048-1.43-11.038,0.786-12.324,7.434
		c-0.55,2.844-0.659,5.803-0.693,8.712c-0.091,7.773-0.031,15.548-0.031,23.82c-4.39,0.126-8.672,0.035-13.207,0.061
		c0-16.722,0-33.256,0-50.001c4.056,0,8.096,0,12.365,0c0,1.966,0,3.813,0,6.161c2.215-1.799,3.963-3.429,5.911-4.764
		c7.374-5.052,19.369-3.766,23.765,4.212c0.103,0.187,0.364,0.285,0.77,0.586c2.112-3.014,5.171-4.832,8.425-6.414
		c6.211-3.021,17.119-0.587,20.753,3.995c2.595,3.271,3.917,6.982,3.98,10.972c0.179,11.31,0.062,22.624,0.047,33.936
		C829.707,189.81,829.555,190.137,829.39,190.801z"/>
	<path fill-rule="evenodd" clip-rule="evenodd" fill="#002A5B" d="M679.324,146.078c0-8.215,0-16.178,0-24.362
		c4.712,0,9.215,0,13.892,0c0,22.926,0,45.732,0,68.994c-4.224,0.188-8.496,0.067-13.037,0.075
		c-0.104-1.897-0.195-3.591-0.312-5.696c-0.844,0.788-1.479,1.28-1.991,1.878c-1.906,2.222-4.388,3.451-7.129,4.235
		c-11.283,3.231-22.025-2.836-26.025-13.246c-2.949-7.673-3.35-15.66-0.572-23.308c3.564-9.813,8.588-14.235,19.18-15.375
		C668.312,138.734,674.753,140.6,679.324,146.078z M680.23,165.188c-0.327-2.179-0.41-4.433-1.044-6.52
		c-0.771-2.539-1.72-5.029-4.06-6.782c-5.059-3.789-14.848-3.175-17.654,5.682c-1.224,3.859-1.75,7.816-0.905,11.988
		c0.803,3.96,2.221,7.392,5.382,9.904c4.022,3.196,11.547,3.224,15.099-2.216C679.481,173.516,679.982,169.474,680.23,165.188z"/>
	<path fill-rule="evenodd" clip-rule="evenodd" fill="#002A5B" d="M554.927,190.659c-4.824,0-9.245,0-13.876,0
		c0-22.947,0-45.765,0-68.785c2.12-0.817,4.472-0.261,6.762-0.363c2.214-0.098,4.438-0.021,6.999-0.021c0,12.276,0,24.333,0,36.39
		c0.215,0.082,0.431,0.163,0.646,0.245c1.009-1.229,1.934-2.54,3.039-3.674c4.193-4.3,8.417-8.571,12.705-12.775
		c0.597-0.584,1.612-1.02,2.443-1.037c4.698-0.098,9.4-0.048,14.978-0.048c-6.585,6.332-12.651,12.163-19.076,18.339
		c6.894,10.41,13.805,20.849,20.961,31.656c-5.829,0-11.181,0-16.813,0c-4.384-7.11-8.896-14.431-13.647-22.139
		c-1.644,1.614-3.179,2.884-4.385,4.412c-0.569,0.721-0.689,1.938-0.703,2.935C554.89,180.618,554.927,185.443,554.927,190.659z"/>
	<path fill-rule="evenodd" clip-rule="evenodd" fill="#002A5B" d="M465.691,156.057c-4.466,0-8.567,0-12.647,0
		c-1.041-4,1.082-9.203,4.921-11.844c3.603-2.479,7.588-3.742,11.957-4.493c4.853-0.833,9.605-0.686,14.249,0.263
		c7.416,1.514,11.216,3.399,13.077,10.356c0.297,1.11,0.436,2.294,0.44,3.444c0.036,8.725-0.064,17.451,0.062,26.174
		c0.05,3.468,0.567,6.929,0.91,10.829c-3.777,0-7.843,0.059-11.903-0.067c-0.584-0.018-1.31-0.831-1.663-1.452
		c-0.373-0.656-0.378-1.522-0.608-2.6c-1.823,0.989-3.377,1.9-4.987,2.694c-6.843,3.373-13.801,3.734-20.893,0.773
		c-4.534-1.894-6.771-5.398-7.562-10.138c-0.488-2.919-0.315-5.728,0.563-8.504c1.686-5.33,6.037-7.619,10.914-8.826
		c3.7-0.915,7.594-1.015,11.383-1.598c2.17-0.334,4.352-0.754,6.439-1.414c2.644-0.834,3.38-2.257,3.27-5.423
		c-0.074-2.114-1.761-4.709-3.623-5.087c-3.07-0.623-6.184-1.222-9.274,0.018c-1.825,0.731-3.243,1.87-3.917,3.79
		C466.452,153.932,466.1,154.91,465.691,156.057z M483.577,167.121c-3.419,0.648-6.373,1.107-9.274,1.791
		c-2.348,0.553-4.738,1.141-6.914,2.141c-2.414,1.11-3.345,3.657-2.85,6.585c0.412,2.438,1.932,3.975,4.257,4.627
		c2.355,0.661,4.667,0.78,7.17,0.163c3.821-0.943,7.198-3.849,7.564-7.647C483.775,172.239,483.577,169.655,483.577,167.121z"/>
	<path fill-rule="evenodd" clip-rule="evenodd" fill="#002A5D" d="M591.928,155.961c-0.555-6.75,5.347-13.077,10.689-14.644
		c5.952-1.746,11.92-2.869,18.229-1.608c2.963,0.592,5.938,0.815,8.736,2.166c4.947,2.388,7.45,6.14,7.334,11.703
		c-0.104,4.95-0.065,9.904-0.011,14.855c0.082,7.345-0.636,14.735,1.506,22.178c-4.533,0-8.731,0-13.311,0
		c-0.421-1.174-0.909-2.539-1.32-3.685c-3.08,1.363-6.052,2.919-9.184,4.007c-4.854,1.686-9.764,1.539-14.706-0.056
		c-5.067-1.635-9.754-6.854-9.813-13.473c-0.064-7.413,4.04-12.561,10.543-14.156c3.929-0.965,7.979-1.429,11.968-2.157
		c2.508-0.458,5.02-0.917,7.5-1.501c2.292-0.54,3.208-2.437,3.258-4.474c0.052-2.099-0.481-4.302-2.689-5.313
		c-3.774-1.728-7.635-2.129-11.426-0.013c-2.315,1.293-3.439,3.41-3.668,6.171C601.04,155.961,596.613,155.961,591.928,155.961z
		 M623.383,167.099c-3.803,0.644-7.238,1.098-10.61,1.84c-2.131,0.468-4.329,1.08-6.203,2.146c-2.151,1.224-3.064,3.503-2.817,5.999
		c0.286,2.906,1.744,4.495,4.434,5.213c0.783,0.209,1.566,0.426,2.359,0.592c4.814,1.002,10.419-2.128,12.119-6.739
		C623.752,173.205,623.435,170.183,623.383,167.099z"/>
	<path fill-rule="evenodd" clip-rule="evenodd" fill="#002A5D" d="M748.135,168.97c-12.551,0-24.37,0-36.566,0
		c0.69,2.541,1.133,4.7,1.868,6.752c1.685,4.692,8.197,6.606,12.764,5.709c3.251-0.638,6.186-1.877,8.114-4.91
		c0.449-0.706,1.733-1.184,2.659-1.227c3.161-0.148,6.335-0.057,9.506-0.057c-0.108,4.507-4.806,11.149-9.743,13.639
		c-5.314,2.68-10.79,3.725-16.846,2.806c-5.792-0.878-10.661-2.936-14.813-7.103c-3.909-3.924-5.947-8.778-6.574-13.987
		c-0.741-6.164-0.385-12.41,2.713-18.124c3.808-7.026,9.6-11.117,17.477-12.681c5.77-1.145,11.072-0.359,16.26,2.155
		c6.741,3.267,10.181,9.14,12.003,15.985C747.842,161.256,747.731,164.849,748.135,168.97z M711.975,160.172
		c7.348,0,14.427,0,21.492,0c0.305-5.417-2.946-9.597-7.901-10.365C719.076,148.801,712.512,152.548,711.975,160.172z"/>
	<path fill-rule="evenodd" clip-rule="evenodd" fill="#002A5B" d="M882.802,140.79c-2.351,6.494-4.569,12.729-6.864,18.936
		c-2.867,7.756-5.805,15.487-8.695,23.235c-1.994,5.346-3.772,10.781-5.991,16.03c-2.209,5.225-6.274,7.966-12.028,8.977
		c-3.72,0.654-7.176-0.233-10.748-0.152c-1.647,0.038-2.352-0.736-2.338-2.347c0.026-2.819,0.008-5.639,0.008-8.935
		c2.099,0,4.083-0.255,5.98,0.046c6.457,1.027,8.914-3.833,6.98-9.183c-5.424-15.006-11.242-29.869-16.887-44.795
		c-0.191-0.505-0.2-1.08-0.33-1.833c4.875,0,9.544,0,14.495,0c3.665,11.007,7.371,22.135,11.33,34.023
		c3.771-11.736,7.35-22.876,10.924-34.002C873.45,140.79,877.976,140.79,882.802,140.79z"/>
	<path fill-rule="evenodd" clip-rule="evenodd" fill="#002A5D" d="M505.714,140.665c4.181,0,8.053,0,12.1,0
		c0.934,2.851,0.037,5.816,0.583,9.042c2.371-4.149,5.33-7.438,9.612-9.034c2.244-0.836,4.72-1.114,7.119-1.441
		c1.378-0.189,2.168,0.65,2.162,2.127c-0.014,3.629-0.004,7.259-0.004,10.651c-3.021,0.208-5.775,0.122-8.412,0.645
		c-4.317,0.855-7.256,3.499-8.653,7.796c-0.837,2.576-1.357,5.154-1.33,7.886c0.069,7.303,0.023,14.606,0.023,22.187
		c-4.396,0-8.673,0-13.2,0C505.714,174.055,505.714,157.52,505.714,140.665z"/>
	<path fill-rule="evenodd" clip-rule="evenodd" fill="#E67700" d="M697.145,219.911c4.517-3.733,9.119-4.164,12.671,0.276
		c1.622-0.952,3.11-2.172,4.818-2.76c4.54-1.565,9.351,1.186,9.65,5.857c0.381,5.946,0.092,11.935,0.092,18.061
		c-1.411,0-2.537,0-4.113,0c0-2.495,0.002-4.922,0-7.35c-0.004-2.826,0.05-5.654-0.033-8.478c-0.082-2.789-1.027-4.055-3.08-4.445
		c-2.689-0.512-4.82,0.419-5.707,2.921c-0.615,1.734-0.906,3.649-0.975,5.498c-0.143,3.864-0.043,7.737-0.043,11.579
		c-0.552,0.196-0.871,0.41-1.189,0.407c-2.783-0.021-2.825-0.034-2.853-2.673c-0.038-3.769-0.009-7.538-0.01-11.306
		c0-0.824,0.01-1.649-0.015-2.473c-0.051-1.742-0.413-3.373-2.376-3.862c-1.922-0.478-3.78-0.262-5.14,1.394
		c-1.304,1.585-2.009,3.401-1.987,5.51c0.043,4.231,0.013,8.464,0.013,13.112c-1.318,0.132-2.508,0.25-4.181,0.418
		c0-4.141,0-7.979,0-11.819c0-3.87,0-7.74,0-11.565C696.08,217.506,696.08,217.506,697.145,219.911z"/>
	<path fill-rule="evenodd" clip-rule="evenodd" fill="#E67700" d="M575.428,209.257c1.822,0,3.434,0,5.266,0
		c3.768,10.542,7.526,21.055,11.293,31.593c-4.209,1.192-4.467,1.057-5.706-2.382c-0.748-2.075-0.996-4.979-2.487-5.965
		c-1.669-1.104-4.487-0.493-6.808-0.565c-1.75-0.056-3.505-0.011-5.499-0.011c-0.821,2.195-1.646,4.35-2.432,6.52
		c-1.211,3.342-1.441,3.464-5.629,2.579C567.43,230.427,571.423,219.862,575.428,209.257z M572.804,227.967c3.626,0,6.592,0,9.908,0
		c-1.634-4.722-3.151-9.109-4.863-14.058C576.094,218.801,574.525,223.17,572.804,227.967z"/>
	<path fill-rule="evenodd" clip-rule="evenodd" fill="#E67700" d="M662.153,241.354c-1.062,0-1.964,0-3.119,0
		c-0.16-0.692-0.335-1.441-0.509-2.19c-0.213,0.084-0.464,0.123-0.635,0.26c-5.476,4.453-12.205,2.967-15.04-3.463
		c-1.874-4.251-1.925-8.714-0.207-13.003c2.381-5.944,8.987-7.606,13.643-4.271c0.465,0.334,0.901,0.708,1.866,1.467
		c0-3.868,0-7.266,0-10.831c1.549,0,2.667,0,4.001,0C662.153,219.87,662.153,230.407,662.153,241.354z M645.862,229.269
		c0.079,1.28,0.037,2.587,0.261,3.847c0.56,3.146,2.507,5.001,5.287,5.215c3.164,0.243,5.783-1.253,6.42-4.218
		c0.714-3.322,0.829-6.755-0.692-9.971c-1.138-2.406-3.307-3.694-5.581-3.461c-2.785,0.286-4.813,1.989-5.383,4.732
		C645.914,226.662,645.958,227.974,645.862,229.269z"/>
	<path fill-rule="evenodd" clip-rule="evenodd" fill="#E67700" d="M621.218,224.864c-1.03-0.048-2.153-0.103-3.389-0.161
		c0.434-4.145,2.507-6.394,6.283-7.267c2.708-0.625,5.36-0.657,7.937,0.352c2.631,1.03,4.168,2.951,4.17,5.907
		c0.002,3.881,0.012,7.762,0.027,11.643c0.007,1.394-0.229,2.723,1.866,3.139c1.751,0.348,0.462,1.86,0.808,2.959
		c-3.027,0.674-5.434,0.653-6.632-2.693c-2.67,2.345-5.515,3.377-8.89,3.125c-3.792-0.283-6.264-2.212-6.794-5.837
		c-0.371-2.539,0.725-6.557,4.771-7.667c2.575-0.706,5.27-0.998,7.924-1.38c1.199-0.173,2.423-0.186,2.712-1.686
		c0.314-1.63-0.072-2.999-1.577-3.957C627.143,219.249,623.427,220.587,621.218,224.864z M631.732,229.891
		c-0.736,0.153-1.492,0.352-2.261,0.458c-0.81,0.111-1.652,0.039-2.443,0.215c-1.356,0.303-2.713,0.653-4.013,1.139
		c-1.604,0.599-2.369,1.859-2.132,3.577c0.277,2,1.213,2.875,3.187,3.115C628.558,238.94,633.677,236.393,631.732,229.891z"/>
	<path fill-rule="evenodd" clip-rule="evenodd" fill="#E67700" d="M688.135,231.112c-5.884,0-11.385,0-17.085,0
		c0.146,0.884,0.258,1.529,0.359,2.175c0.408,2.583,1.802,4.392,4.389,4.895c2.653,0.515,5.384,0.298,6.902-2.275
		c1.208-2.048,2.695-2.205,4.629-1.716c-0.885,4.766-3.827,7.224-8.408,7.667c-10.564,1.022-13.399-7.808-12.082-14.945
		c0.857-4.641,3.183-8.278,8.209-9.527c4.53-1.127,8.845,0.506,11.204,4.508C687.844,224.59,688.252,227.558,688.135,231.112z
		 M671.027,227.431c4.196,0,8.359,0,12.53,0c-0.211-4.412-1.841-6.425-5.344-6.806C674.751,220.248,672.141,222.686,671.027,227.431
		z"/>
	<path fill-rule="evenodd" clip-rule="evenodd" fill="#E67700" d="M501.082,231.083c-5.634,0-11.016,0-16.372,0
		c-0.329,3.626,0.909,6.018,3.476,6.97c2.813,1.042,6.43,0.247,7.846-2.308c1.193-2.149,2.646-1.818,4.509-1.575
		c-0.073,2.265-1.104,3.973-2.6,5.286c-3.453,3.033-7.564,3.007-11.622,1.751c-4.05-1.253-5.886-4.548-6.243-8.569
		c-0.313-3.511-0.4-7.061,1.521-10.298c2.191-3.696,5.45-5.441,9.67-5.28c4.13,0.159,7.06,2.188,8.742,6.03
		C501.072,225.521,501.507,228.004,501.082,231.083z M496.817,227.496c-0.3-4.57-2.672-7.095-6.33-6.885
		c-3.521,0.203-5.875,2.925-5.883,6.885C488.674,227.496,492.742,227.496,496.817,227.496z"/>
	<path fill-rule="evenodd" clip-rule="evenodd" fill="#E67700" d="M532.179,241.343c-1.301,0-2.428,0-3.785,0
		c0-10.605,0-21.141,0-32.051c1.133-0.05,2.34-0.104,3.857-0.171c0,3.823,0,7.402,0,11.481c3.141-3.172,6.313-4.354,10.239-3.076
		c2.632,0.857,4.294,2.549,4.64,5.185c0.38,2.899,0.381,5.852,0.469,8.785c0.068,2.236,0.025,4.476,0.012,6.713
		c-0.021,3.369-0.03,3.368-4.054,2.998c0-3.91,0.008-7.869-0.005-11.828c-0.004-1.411,0.117-2.854-0.136-4.225
		c-0.291-1.583-0.595-3.41-2.525-3.898c-2.094-0.531-4.208-0.607-5.992,0.988c-1.884,1.683-2.566,3.857-2.563,6.313
		c0.004,3.535,0.007,7.068-0.007,10.602C532.326,239.837,532.239,240.515,532.179,241.343z"/>
	<path fill-rule="evenodd" clip-rule="evenodd" fill="#E67700" d="M738.409,236.823c2.229-6.745,4.2-12.712,6.236-18.877
		c1.352,0,2.709,0,4.48,0c-0.699,1.904-1.359,3.702-2.022,5.5c-2.351,6.375-4.69,12.753-7.065,19.12
		c-0.491,1.315-1.048,2.615-1.686,3.865c-1.965,3.853-3.671,4.712-8.556,4.239c-0.073-1.065-0.151-2.18-0.209-2.992
		c1.8-0.738,3.67-1.009,4.776-2.075c1.652-1.593,2.064-3.76,1.133-6.167c-2.283-5.899-4.386-11.87-6.55-17.815
		c-0.396-1.086-0.747-2.189-1.235-3.626c1.642,0,2.959,0,4.586,0C734.218,223.912,736.18,229.958,738.409,236.823z"/>
	<path fill-rule="evenodd" clip-rule="evenodd" fill="#E67700" d="M524.472,225.9c-1.431,0-2.464,0-3.029,0
		c-1.43-1.728-2.376-3.664-3.922-4.579c-3.502-2.07-7.543,0.198-8.504,4.462c-0.547,2.429-0.64,4.86-0.096,7.338
		c0.653,2.969,2.12,4.743,4.57,5.145c3.027,0.495,5.118-0.641,6.525-3.585c0.249-0.521,0.384-1.099,0.634-1.833
		c1.184,0,2.412,0,3.67,0c-0.902,5.661-3.598,8.563-7.964,8.972c-7.011,0.658-10.016-2.454-11.452-7.497
		c-1.603-5.615-1.124-11.072,3.729-15.169c3.185-2.687,6.957-2.774,10.642-1.303C522.61,219.184,524.26,221.924,524.472,225.9z"/>
	<path fill-rule="evenodd" clip-rule="evenodd" fill="#E67700" d="M614.047,225.9c-1.327,0-2.357,0-3.528,0
		c-0.393-0.913-0.69-1.923-1.223-2.787c-2.271-3.686-7.701-3.36-9.811,0.681c-1.965,3.764-1.872,7.76-0.124,11.542
		c1.854,4.01,7.462,4.169,9.785,0.4c0.54-0.876,0.854-1.891,1.31-2.93c1.133,0,2.262,0,3.4,0c-0.376,4.765-2.902,8.122-6.599,8.897
		c-5.29,1.11-9.571-0.558-11.683-4.917c-2.643-5.454-2.54-10.916,1.034-15.978c2.354-3.332,6.821-4.577,11.037-3.389
		C611.71,218.567,613.549,220.918,614.047,225.9z"/>
	<path fill-rule="evenodd" clip-rule="evenodd" fill="#F17D00" d="M462.355,212.799c-3.962,0-7.346,0-10.959,0
		c-0.08-1.153-0.15-2.149-0.239-3.407c8.702,0,17.202,0,25.95,0c0,1.008,0,2.079,0,3.469c-3.462,0-6.813,0-10.466,0
		c0,9.536,0,18.768,0,28.169c-1.53,0-2.744,0-4.286,0C462.355,231.671,462.355,222.441,462.355,212.799z"/>
</g>
<path fill="#F2F2F2" stroke="#000000" stroke-miterlimit="10" d="M537.019,266.196c-6.974-13.636-14.604-18.215-25.284-24.111
	c-18.995-10.485-63.774-15-75.163,27.941c0,0-16.271-1.461-25.413-2.894c-19.929-3.122-33.898,28.453-33.898,28.453
	s-8.555,21.393,58.438,19.49c0,0,2.661,4.93,21.619,13.102c18.958,8.171,56.977,5.149,72.625-1.508
	C538.983,322.823,546.553,284.843,537.019,266.196z M533.928,315.658c0,0-26.008,11.475-30.741,1.751l-2.492-4.119
	c0,0,4.148,5.794,34.417-3.705L533.928,315.658z"/>
<ellipse stroke="#000000" stroke-miterlimit="10" cx="508.235" cy="246.82" rx="3.5" ry="3.75"/>
<path fill="none" d="M133.16,0"/>
<g>
	<path fill-rule="evenodd" clip-rule="evenodd" fill="#012C5E" d="M296.61,187.546c2.717,1.15,5.436,2.295,8.148,3.455
		c0.97,0.415,1.9,0.935,2.896,1.27c0.472,0.159,1.053-0.007,1.584-0.025c0.074,0.275,0.147,0.551,0.221,0.826
		c-0.184,0.435-0.434,0.854-0.542,1.306c-1.368,5.735-2.721,11.475-4.063,17.216c-0.352,1.506-0.651,3.024-0.975,4.537
		c0.604-0.113,0.899-0.339,1.14-0.612c2.269-2.575,4.526-5.16,6.791-7.738c3.774-4.298,7.551-8.595,11.327-12.892
		c0.225,0.089,0.45,0.178,0.675,0.267l-0.001,0.002c0.063,0.427,0.071,0.871,0.195,1.28c1.555,5.084,3.113,10.168,4.706,15.242
		c0.239,0.761,0.657,1.466,0.992,2.197c-0.145,0.203-0.291,0.405-0.436,0.608c-0.771,0.013-1.555-0.051-2.314,0.053
		c-5.359,0.739-10.713,1.504-16.067,2.281c-2.58,0.375-5.153,0.791-7.73,1.188c-0.742-0.762-1.448-1.565-2.234-2.279
		c-2.724-2.474-5.486-4.906-8.215-7.374c-3.698-3.343-7.38-6.705-11.069-10.059c-0.011-0.086,0.017-0.158,0.085-0.213
		c3.013-2.185,6.011-4.39,9.043-6.546C292.689,190.167,294.661,188.873,296.61,187.546z M303.806,216.554l-0.055,0.103l0.089,0.008
		L303.806,216.554z"/>
	<path fill-rule="evenodd" clip-rule="evenodd" fill="#012B5E" d="M263.804,205.193c-1.445-1.075-2.965-2.065-4.323-3.242
		c-5.022-4.356-9.978-8.789-14.986-13.163c-2.862-2.499-5.775-4.938-8.666-7.404c0.292-0.166,0.565-0.417,0.877-0.485
		c4.668-1.008,9.346-1.977,14.011-2.999c0.721-0.158,1.394-0.537,2.088-0.813c0.187,0.09,0.374,0.179,0.561,0.269
		c1.695,1.288,3.378,2.592,5.086,3.862c7.571,5.628,15.149,11.247,22.724,16.868c-1.02,0.507-2.01,1.089-3.065,1.508
		C273.353,201.486,268.575,203.332,263.804,205.193z"/>
	<path fill-rule="evenodd" clip-rule="evenodd" fill="#16579A" d="M263.804,205.193c4.771-1.861,9.549-3.707,14.308-5.598
		c1.055-0.419,2.045-1.001,3.065-1.508c0.154,0.069,0.308,0.138,0.463,0.207c3.689,3.354,7.371,6.715,11.069,10.059
		c2.729,2.468,5.491,4.9,8.215,7.374c0.786,0.714,1.492,1.517,2.234,2.279c-0.051,0.175-0.102,0.35-0.153,0.525
		c-0.074,0.009-0.148,0.021-0.221,0.033c-0.108-0.007-0.216-0.014-0.324-0.021c-0.4-0.096-0.808-0.296-1.201-0.271
		c-2.357,0.15-4.708,0.413-7.066,0.526c-5.119,0.245-10.241,0.422-15.362,0.627c-2.712-2.539-5.435-5.067-8.133-7.621
		C268.386,209.615,266.101,207.397,263.804,205.193z"/>
	<path fill-rule="evenodd" clip-rule="evenodd" fill="#022D60" d="M302.46,218.542c0.108,0.007,0.216,0.014,0.324,0.021
		c-0.126,0.305-0.216,0.632-0.383,0.913c-4.693,7.908-9.399,15.808-14.086,23.72c-0.777,1.312-1.473,2.673-2.207,4.012l0.014-0.015
		c-0.083,0.056-0.166,0.111-0.248,0.167c0.051,0.055,0.102,0.11,0.152,0.165c0.015,0.691-0.019,1.387,0.054,2.072
		c0.472,4.427,0.966,8.853,1.457,13.278c0.067,0.611,0.154,1.22,0.232,1.83c-0.175,0.006-0.35,0.013-0.524,0.02
		c-3.569-7.018-7.134-14.038-10.724-21.044c-0.185-0.36-0.591-0.607-0.895-0.907c-0.29-0.745-1.021-1.468-0.115-2.273
		c0.402-0.22,0.854-0.381,1.199-0.669c2.109-1.765,4.178-3.577,6.289-5.338c4.483-3.74,8.975-7.471,13.482-11.181
		C298.45,221.691,300.467,220.13,302.46,218.542z"/>
	<path fill-rule="evenodd" clip-rule="evenodd" fill="#012C5F" d="M332.279,173.041c0.571-0.2,1.185-0.65,1.707-0.562
		c6.452,1.102,12.89,2.282,19.332,3.442c0.104,0.709,0.125,1.445,0.349,2.114c0.11,0.33,0.597,0.533,0.914,0.793
		c-0.508,0.291-1.016,0.583-1.524,0.874c-0.451,0.113-0.947,0.14-1.347,0.35c-6.279,3.285-12.523,6.637-18.825,9.876
		c-2.871,1.476-5.851,2.74-8.781,4.101c0.04-0.382-0.002-0.796,0.131-1.142c1.254-3.242,2.527-6.477,3.818-9.705
		c1.309-3.274,2.645-6.538,3.969-9.807c0.019-0.077,0.067-0.113,0.146-0.11C332.267,173.222,332.304,173.147,332.279,173.041z"/>
	<path fill-rule="evenodd" clip-rule="evenodd" fill="#18589B" d="M296.61,187.546c-1.949,1.327-3.921,2.621-5.842,3.988
		c-3.032,2.157-6.03,4.362-9.043,6.546c-2.867-4.44-5.743-8.875-8.598-13.323c-2.182-3.401-4.336-6.821-6.503-10.233
		c2.755,1.146,5.523,2.26,8.261,3.444c7.189,3.107,14.364,6.243,21.543,9.372C296.504,187.374,296.55,187.476,296.61,187.546z"/>
	<path fill-rule="evenodd" clip-rule="evenodd" fill="#F27E01" d="M303.006,218.53c0.051-0.175,0.102-0.35,0.153-0.525
		c2.577-0.397,5.15-0.813,7.73-1.188c5.354-0.776,10.708-1.542,16.067-2.281c0.759-0.104,1.542-0.04,2.314-0.053
		c-0.483,0.539-0.939,1.104-1.453,1.612c-6.768,6.694-13.543,13.379-20.322,20.063c-0.199,0.197-0.451,0.341-0.677,0.509
		c-0.182-0.435-0.466-0.856-0.527-1.307c-0.185-1.365-0.2-2.757-0.433-4.112c-0.504-2.938-1.061-5.869-1.683-8.784
		C303.89,221.13,303.402,219.84,303.006,218.53z"/>
	<path fill-rule="evenodd" clip-rule="evenodd" fill="#3293DB" d="M302.46,218.542c-1.994,1.588-4.01,3.149-5.978,4.769
		c-4.507,3.71-8.999,7.441-13.482,11.181c-2.111,1.761-4.18,3.573-6.289,5.338c-0.345,0.289-0.797,0.45-1.199,0.669
		c1.106-7.025,2.213-14.05,3.319-21.075c5.121-0.205,10.243-0.382,15.362-0.627c2.358-0.113,4.709-0.375,7.066-0.526
		C301.653,218.246,302.06,218.446,302.46,218.542z"/>
	<path fill-rule="evenodd" clip-rule="evenodd" fill="#18589A" d="M252.806,177.088c-0.695,0.276-1.367,0.654-2.088,0.813
		c-4.665,1.022-9.343,1.99-14.011,2.999c-0.313,0.068-0.585,0.32-0.877,0.485c-1.545-3.323-3.114-6.636-4.631-9.973
		c-2.169-4.771-4.302-9.56-6.447-14.343c-0.113-0.252-0.197-0.518-0.37-0.977c0.491,0.213,0.788,0.343,1.084,0.472
		c1.612,1.272,3.195,2.582,4.84,3.809C237.797,165.958,245.305,171.519,252.806,177.088z"/>
	<path fill-rule="evenodd" clip-rule="evenodd" fill="#F4B10A" d="M303.006,218.53c0.396,1.31,0.885,2.6,1.169,3.934
		c0.622,2.915,1.178,5.846,1.683,8.784c0.233,1.355,0.248,2.747,0.433,4.112c0.061,0.451,0.345,0.872,0.527,1.307
		c-6.454,3.428-12.904,6.861-19.368,10.268c-0.387,0.204-0.891,0.187-1.34,0.273c0.733-1.339,1.429-2.7,2.207-4.012
		c4.687-7.912,9.393-15.812,14.086-23.72c0.167-0.281,0.257-0.608,0.383-0.913C302.858,218.551,302.931,218.54,303.006,218.53z"/>
	<path fill-rule="evenodd" clip-rule="evenodd" fill="#F4B10C" d="M252.806,177.088c-7.501-5.569-15.009-11.13-22.5-16.715
		c-1.646-1.227-3.229-2.537-4.84-3.809c2.538,1.055,5.09,2.075,7.61,3.171c11.015,4.791,22.02,9.604,33.027,14.413
		c0.124,0.054,0.223,0.165,0.334,0.249c-0.419,0.105-0.836,0.219-1.258,0.313c-3.937,0.884-7.875,1.765-11.813,2.646
		C253.18,177.267,252.993,177.178,252.806,177.088z"/>
	<path fill-rule="evenodd" clip-rule="evenodd" fill="#F17D01" d="M253.367,177.357c3.938-0.882,7.876-1.762,11.813-2.646
		c0.421-0.095,0.839-0.208,1.258-0.313c0.075,0.022,0.138,0.065,0.187,0.128c2.166,3.411,4.32,6.831,6.502,10.232
		c2.854,4.449,5.731,8.883,8.598,13.323c-0.068,0.055-0.096,0.126-0.085,0.213c-0.155-0.069-0.309-0.138-0.463-0.207
		c-7.575-5.622-15.153-11.24-22.724-16.868C256.745,179.949,255.062,178.645,253.367,177.357z"/>
	<path fill-rule="evenodd" clip-rule="evenodd" fill="#18589A" d="M332.02,173.375c-1.324,3.269-2.66,6.533-3.969,9.807
		c-1.291,3.228-2.564,6.463-3.818,9.705c-0.134,0.346-0.092,0.76-0.131,1.142l0.006-0.027c-0.103,0.122-0.205,0.244-0.307,0.366
		c0.004,0.262,0.008,0.524,0.012,0.787c-0.225-0.089-0.45-0.178-0.675-0.268c-4.56-0.605-9.119-1.211-13.679-1.816
		c-0.074-0.275-0.147-0.551-0.221-0.826c5.937-4.951,11.87-9.907,17.813-14.849C328.69,176.034,330.364,174.714,332.02,173.375z"/>
	<path fill-rule="evenodd" clip-rule="evenodd" fill="#3192DA" d="M323.813,195.155c-0.004-0.262-0.008-0.524-0.012-0.787
		c0.103-0.122,0.205-0.244,0.307-0.366l-0.006,0.027c2.931-1.36,5.91-2.625,8.781-4.101c6.302-3.239,12.546-6.591,18.825-9.876
		c0.4-0.209,0.896-0.237,1.347-0.35c-1.888,2.389-3.757,4.793-5.668,7.164c-3.01,3.732-6.047,7.443-9.077,11.158
		c-0.118,0.145-0.289,0.246-0.435,0.368c-1.4-0.354-2.794-0.738-4.202-1.056c-3.283-0.743-6.573-1.456-9.861-2.18L323.813,195.155z"
		/>
	<path fill-rule="evenodd" clip-rule="evenodd" fill="#F17F04" d="M291.742,182.885c-1.959-0.767-3.919-1.533-5.877-2.302
		c-3.741-1.47-7.489-2.922-11.21-4.44c-0.447-0.183-0.997-0.69-1.071-1.121c-0.935-5.447-1.793-10.908-2.66-16.367
		c-0.053-0.331-0.007-0.677-0.007-1.287c7.1,8.499,14.074,16.846,21.047,25.194C291.89,182.669,291.816,182.777,291.742,182.885z"/>
	<path fill-rule="evenodd" clip-rule="evenodd" fill="#16579A" d="M323.812,195.157c3.288,0.724,6.578,1.437,9.861,2.18
		c1.408,0.318,2.802,0.702,4.202,1.056c-2.723,5.161-5.447,10.322-8.17,15.483c-0.335-0.731-0.753-1.436-0.992-2.197
		c-1.593-5.073-3.151-10.157-4.706-15.242C323.883,196.028,323.874,195.584,323.812,195.157z"/>
	<path fill-rule="evenodd" clip-rule="evenodd" fill="#3190D8" d="M275.627,242.773c0.303,0.3,0.71,0.547,0.895,0.907
		c3.59,7.007,7.154,14.027,10.724,21.044c-0.741,0.062-1.493,0.238-2.22,0.163c-1.743-0.18-3.474-0.479-5.21-0.73
		c-1.313-6.511-2.63-13.022-3.936-19.536C275.758,244.013,275.71,243.389,275.627,242.773z"/>
	<path fill-rule="evenodd" clip-rule="evenodd" fill="#1A599C" d="M279.815,264.157c1.736,0.251,3.467,0.55,5.21,0.73
		c0.727,0.075,1.479-0.101,2.22-0.163c0.175-0.007,0.35-0.014,0.524-0.02c0.607,1.276,1.214,2.553,1.821,3.829
		c0.349,1.358,0.608,2.748,1.066,4.068c0.753,2.178,1.634,4.312,2.461,6.464c-3.016-3.326-6.044-6.64-9.042-9.981
		C282.626,267.468,281.234,265.801,279.815,264.157z"/>
	<path fill-rule="evenodd" clip-rule="evenodd" fill="#1E5B9B" d="M354.58,178.829c-0.317-0.261-0.804-0.464-0.914-0.793
		c-0.224-0.669-0.245-1.405-0.349-2.114c5.165-0.583,10.329-1.165,15.494-1.747c-0.289,0.667-0.578,1.336-0.867,2.003
		c-0.485,0.17-0.971,0.341-1.456,0.512c-0.107,0.021-0.215,0.041-0.322,0.062c-0.253,0.03-0.507,0.06-0.76,0.089
		C361.797,177.504,358.188,178.166,354.58,178.829z"/>
	<path fill-rule="evenodd" clip-rule="evenodd" fill="#144780" d="M366.487,176.69c0.485-0.17,0.971-0.341,1.456-0.512
		c1.899,0.063,3.236-0.938,4.373-2.316c3.138-0.407,6.276-0.814,9.414-1.222c0.067,0.138,0.134,0.276,0.201,0.414
		c-0.757,0.518-1.457,1.348-2.282,1.5C375.279,175.36,370.877,175.996,366.487,176.69z"/>
	<path fill-rule="evenodd" clip-rule="evenodd" fill="#3692D7" d="M293.118,279.065c-0.827-2.152-1.708-4.286-2.461-6.464
		c-0.458-1.321-0.717-2.71-1.066-4.068c2.366,3.693,4.732,7.386,7.098,11.078c-0.082,0.148-0.164,0.296-0.246,0.444
		C295.334,279.726,294.226,279.396,293.118,279.065z"/>
	<path fill-rule="evenodd" clip-rule="evenodd" fill="#18508D" d="M372.316,173.862c-1.137,1.378-2.474,2.378-4.373,2.316
		c0.289-0.667,0.578-1.336,0.867-2.003C369.979,174.07,371.147,173.966,372.316,173.862z"/>
	<path fill-rule="evenodd" clip-rule="evenodd" fill="#144780" d="M365.405,176.841c0.253-0.03,0.507-0.06,0.76-0.089
		C365.911,176.781,365.658,176.811,365.405,176.841z"/>
	<path fill-rule="evenodd" clip-rule="evenodd" fill="#18589A" d="M332.279,173.041c0.025,0.106-0.012,0.181-0.112,0.224
		C332.136,173.157,332.174,173.083,332.279,173.041z"/>
	<path fill-rule="evenodd" clip-rule="evenodd" fill="#F4B10A" d="M286.027,247.525c-0.051-0.055-0.102-0.11-0.152-0.165
		c0.083-0.056,0.166-0.111,0.248-0.167C286.091,247.304,286.058,247.415,286.027,247.525z"/>
	<path fill-rule="evenodd" clip-rule="evenodd" fill="#43C3A2" d="M309.459,193.071c4.56,0.605,9.119,1.211,13.679,1.816
		c-3.776,4.297-7.553,8.594-11.327,12.892c-2.264,2.579-4.522,5.164-6.791,7.738c-0.241,0.273-0.537,0.499-1.14,0.612
		c0.323-1.513,0.623-3.031,0.975-4.537c1.341-5.742,2.695-11.481,4.063-17.216C309.025,193.925,309.275,193.506,309.459,193.071z"/>
	<polygon fill-rule="evenodd" clip-rule="evenodd" fill="#43C3A2" points="303.806,216.554 303.841,216.665 303.752,216.656 	"/>
	<path fill-rule="evenodd" clip-rule="evenodd" fill="#012C5F" d="M324.108,194.002c-0.103,0.122-0.205,0.244-0.307,0.366
		C323.903,194.247,324.005,194.125,324.108,194.002z"/>
</g>
<path fill="#F2F2F2" d="M305.214,370.278h-34.222c-0.095,0-0.172-0.224-0.172-0.5s0.077-0.5,0.172-0.5h34.222
	c0.095,0,0.172,0.224,0.172,0.5S305.309,370.278,305.214,370.278z"/>
<path fill="#F2F2F2" d="M316.697,396.289h-34.222c-0.095,0-0.172-0.224-0.172-0.5s0.077-0.5,0.172-0.5h34.222
	c0.095,0,0.172,0.224,0.172,0.5S316.792,396.289,316.697,396.289z"/>
<path fill="#F2F2F2" d="M316.697,387.198h-34.222c-0.095,0-0.172-0.224-0.172-0.5s0.077-0.5,0.172-0.5h34.222
	c0.095,0,0.172,0.224,0.172,0.5S316.792,387.198,316.697,387.198z"/>
<path fill="#F2F2F2" d="M296.223,378.956h-18.418c-0.051,0-0.092-0.224-0.092-0.5s0.041-0.5,0.092-0.5h18.418
	c0.051,0,0.092,0.224,0.092,0.5S296.274,378.956,296.223,378.956z"/>
<path fill="#F2F2F2" d="M296.223,411.289h-18.418c-0.051,0-0.092-0.224-0.092-0.5s0.041-0.5,0.092-0.5h18.418
	c0.051,0,0.092,0.224,0.092,0.5S296.274,411.289,296.223,411.289z"/>
<path fill="#F2F2F2" d="M316.697,404.215h-34.222c-0.095,0-0.172-0.224-0.172-0.5s0.077-0.5,0.172-0.5h34.222
	c0.095,0,0.172,0.224,0.172,0.5S316.792,404.215,316.697,404.215z"/>
<path fill="#F2F2F2" d="M305.214,417.789h-34.222c-0.095,0-0.172-0.224-0.172-0.5s0.077-0.5,0.172-0.5h34.222
	c0.095,0,0.172,0.224,0.172,0.5S305.309,417.789,305.214,417.789z"/>
<path fill="#F2F2F2" d="M352.205,431.294h-99.601c-0.276,0-0.5-0.224-0.5-0.5s0.224-0.5,0.5-0.5h99.601c0.275,0,0.5,0.224,0.5,0.5
	S352.481,431.294,352.205,431.294z"/>
<path fill="#F2F2F2" d="M352.205,440.294h-99.601c-0.276,0-0.5-0.224-0.5-0.5s0.224-0.5,0.5-0.5h99.601c0.275,0,0.5,0.224,0.5,0.5
	S352.481,440.294,352.205,440.294z"/>
<path fill="#F2F2F2" d="M352.205,449.294h-99.601c-0.276,0-0.5-0.224-0.5-0.5s0.224-0.5,0.5-0.5h99.601c0.275,0,0.5,0.224,0.5,0.5
	S352.481,449.294,352.205,449.294z"/>
<path fill="#F2F2F2" d="M753.002,338.294h-99.601c-0.276,0-0.5-0.224-0.5-0.5s0.224-0.5,0.5-0.5h99.601c0.275,0,0.5,0.224,0.5,0.5
	S753.277,338.294,753.002,338.294z"/>
<path fill="#F2F2F2" d="M753.002,347.294h-99.601c-0.276,0-0.5-0.224-0.5-0.5s0.224-0.5,0.5-0.5h99.601c0.275,0,0.5,0.224,0.5,0.5
	S753.277,347.294,753.002,347.294z"/>
<path fill="#F2F2F2" d="M753.002,356.294h-99.601c-0.276,0-0.5-0.224-0.5-0.5s0.224-0.5,0.5-0.5h99.601c0.275,0,0.5,0.224,0.5,0.5
	S753.277,356.294,753.002,356.294z"/>
<path fill="#F2F2F2" d="M709.3,370.278h-34.222c-0.096,0-0.172-0.224-0.172-0.5s0.076-0.5,0.172-0.5H709.3
	c0.095,0,0.172,0.224,0.172,0.5S709.394,370.278,709.3,370.278z"/>
<path fill="#F2F2F2" d="M720.783,396.289H686.56c-0.096,0-0.172-0.224-0.172-0.5s0.076-0.5,0.172-0.5h34.223
	c0.094,0,0.172,0.224,0.172,0.5S720.877,396.289,720.783,396.289z"/>
<path fill="#F2F2F2" d="M720.783,387.198H686.56c-0.096,0-0.172-0.224-0.172-0.5s0.076-0.5,0.172-0.5h34.223
	c0.094,0,0.172,0.224,0.172,0.5S720.877,387.198,720.783,387.198z"/>
<path fill="#F2F2F2" d="M700.308,378.956H681.89c-0.051,0-0.092-0.224-0.092-0.5s0.041-0.5,0.092-0.5h18.418
	c0.051,0,0.093,0.224,0.093,0.5S700.359,378.956,700.308,378.956z"/>
<path fill="#F2F2F2" d="M700.308,411.289H681.89c-0.051,0-0.092-0.224-0.092-0.5s0.041-0.5,0.092-0.5h18.418
	c0.051,0,0.093,0.224,0.093,0.5S700.359,411.289,700.308,411.289z"/>
<path fill="#F2F2F2" d="M720.783,404.215H686.56c-0.096,0-0.172-0.224-0.172-0.5s0.076-0.5,0.172-0.5h34.223
	c0.094,0,0.172,0.224,0.172,0.5S720.877,404.215,720.783,404.215z"/>
<path fill="#F2F2F2" d="M709.3,417.789h-34.222c-0.096,0-0.172-0.224-0.172-0.5s0.076-0.5,0.172-0.5H709.3
	c0.095,0,0.172,0.224,0.172,0.5S709.394,417.789,709.3,417.789z"/>
<path fill="#F2F2F2" d="M756.291,431.294H656.69c-0.276,0-0.5-0.224-0.5-0.5s0.224-0.5,0.5-0.5h99.601c0.275,0,0.5,0.224,0.5,0.5
	S756.566,431.294,756.291,431.294z"/>
<path fill="none" d="M756.291,440.294H656.69c-0.276,0-0.5-0.224-0.5-0.5s0.224-0.5,0.5-0.5h99.601c0.275,0,0.5,0.224,0.5,0.5
	S756.566,440.294,756.291,440.294z"/>
<path fill="#F2F2F2" d="M756.291,449.294H656.69c-0.276,0-0.5-0.224-0.5-0.5s0.224-0.5,0.5-0.5h99.601c0.275,0,0.5,0.224,0.5,0.5
	S756.566,449.294,756.291,449.294z"/>
</svg>
